<?xml version="1.0" standalone="no"?>
<!DOCTYPE svg PUBLIC "-//W3C//DTD SVG 20010904//EN"
 "http://www.w3.org/TR/2001/REC-SVG-20010904/DTD/svg10.dtd">
<svg version="1.0" xmlns="http://www.w3.org/2000/svg"
 width="574.000000pt" height="574.000000pt" viewBox="0 0 574.000000 574.000000"
 preserveAspectRatio="xMidYMid meet">
<metadata>
Created by potrace 1.14, written by Peter Selinger 2001-2017
</metadata>
<g transform="translate(0.000000,574.000000) scale(0.100000,-0.100000)"
fill="#000000" stroke="none">
<path d="M2773 5582 c-7 -4 -35 -7 -63 -6 -27 0 -50 -3 -50 -8 0 -4 -9 -8 -20
-8 -11 0 -20 -5 -20 -12 0 -6 -3 -8 -7 -5 -3 4 -11 3 -17 -1 -6 -5 -30 -14
-52 -21 -23 -8 -54 -24 -68 -38 -14 -13 -26 -20 -26 -16 0 4 -5 0 -11 -9 -5
-10 -14 -18 -19 -18 -13 0 -46 -33 -61 -62 -6 -13 -27 -45 -45 -73 -18 -27
-36 -63 -39 -80 -15 -65 -38 -102 -84 -134 -62 -43 -101 -78 -101 -91 0 -5 -5
-10 -12 -10 -6 0 -9 -3 -5 -6 3 -4 1 -12 -6 -19 -28 -30 -47 -56 -47 -65 0 -6
-4 -10 -9 -10 -5 0 -14 -14 -21 -31 -7 -17 -19 -37 -27 -45 -8 -7 -15 -23 -16
-34 -1 -11 -4 -20 -7 -20 -10 0 -42 -98 -36 -109 3 -5 1 -11 -4 -13 -6 -2 -13
-12 -15 -23 -2 -11 -4 -22 -6 -25 -1 -3 -3 -9 -4 -15 -1 -5 -5 -17 -8 -25 -3
-8 -13 -42 -22 -75 -10 -33 -23 -73 -30 -90 -23 -55 -29 -80 -30 -142 -1 -35
-4 -65 -7 -69 -3 -3 -20 -6 -37 -6 -17 -1 -31 -4 -31 -8 0 -3 -15 -7 -32 -7
-59 -1 -74 -11 -72 -46 1 -18 2 -34 4 -37 1 -3 2 -9 1 -13 -1 -5 2 -6 7 -3 14
8 49 -21 83 -70 28 -42 32 -54 35 -137 3 -80 9 -132 14 -132 1 0 3 -7 5 -16 1
-9 10 -32 20 -52 15 -32 15 -38 1 -66 -9 -17 -16 -34 -15 -37 0 -4 -3 -10 -8
-13 -11 -8 -32 -42 -39 -63 -4 -10 -10 -18 -14 -18 -7 0 -42 -78 -46 -102 -1
-5 -2 -9 -4 -10 -10 -14 -22 -151 -22 -262 0 -66 -7 -121 -19 -164 -22 -77
-29 -113 -34 -172 -2 -25 -4 -46 -5 -47 -3 -3 -7 -19 -9 -33 -2 -16 -45 -51
-57 -46 -7 3 -9 -4 -6 -19 4 -26 39 -45 82 -45 24 0 34 8 57 48 15 26 31 50
36 53 5 3 8 9 8 13 -1 3 -1 7 0 9 4 13 9 48 10 77 1 19 6 40 9 45 4 6 7 17 7
25 0 28 12 112 16 116 2 3 12 -17 22 -43 10 -27 22 -53 26 -59 19 -24 69 -124
62 -124 -4 0 -2 -5 5 -12 7 -7 12 -18 12 -25 0 -15 6 -23 62 -85 34 -37 40
-39 75 -33 l39 6 13 -50 c7 -28 17 -51 23 -51 5 0 6 -5 2 -12 -5 -8 -2 -9 9
-5 11 4 17 1 17 -8 0 -8 5 -15 10 -15 6 0 10 -6 10 -14 0 -7 7 -19 15 -26 29
-24 16 -44 -48 -73 -34 -16 -63 -28 -64 -28 -2 0 -17 -5 -35 -10 -61 -17 -106
-24 -213 -32 -41 -3 -125 -16 -145 -22 -3 -1 -24 -5 -47 -10 -24 -4 -43 -11
-43 -16 0 -4 -8 -7 -19 -6 -26 2 -101 -24 -101 -35 0 -5 -4 -7 -9 -4 -5 3 -14
-1 -21 -9 -7 -8 -19 -15 -27 -15 -8 0 -11 -4 -8 -10 3 -5 -1 -10 -10 -10 -8 0
-20 -12 -25 -26 -6 -14 -14 -22 -20 -19 -5 3 -10 -2 -10 -11 0 -10 -3 -15 -6
-11 -7 7 -43 -29 -63 -63 -21 -37 -71 -187 -71 -215 0 -14 -3 -25 -7 -25 -5 0
-9 -21 -9 -48 -2 -73 -8 -116 -17 -123 -5 -3 -9 -27 -10 -52 -1 -25 -5 -43 -9
-40 -7 3 -12 -31 -6 -39 1 -2 -4 -14 -11 -27 -7 -13 -15 -38 -18 -55 -3 -17
-9 -35 -13 -41 -5 -5 -10 -28 -12 -50 -5 -50 23 -117 68 -164 27 -28 32 -40
27 -60 -4 -14 -7 -34 -7 -43 0 -10 -3 -18 -7 -18 -4 0 -9 -12 -12 -27 -4 -16
-13 -62 -22 -103 -9 -41 -18 -93 -21 -115 -7 -53 -13 -94 -19 -128 -3 -15 -7
-37 -9 -50 -2 -12 -9 -42 -16 -67 -6 -25 -12 -57 -13 -72 0 -15 -4 -25 -9 -22
-4 3 -9 -1 -9 -8 -2 -26 -23 -106 -36 -138 -8 -19 -13 -39 -16 -65 -2 -12 -7
-27 -11 -34 -5 -8 -4 -16 3 -21 7 -4 13 -17 14 -28 1 -12 5 -22 10 -22 4 0 5
-4 2 -10 -3 -5 -2 -10 3 -10 5 0 15 -11 22 -25 l13 -25 238 0 238 0 18 25 c10
14 35 48 56 74 20 27 37 53 37 58 0 4 11 20 25 35 14 15 25 32 25 38 0 5 4 10
9 10 5 0 12 8 15 18 4 9 14 27 24 40 l18 23 1 -22 c1 -12 6 -25 10 -28 4 -3 9
-15 11 -26 4 -25 23 -66 40 -83 6 -7 12 -20 12 -28 0 -8 4 -14 9 -14 5 0 15
-16 21 -35 6 -19 16 -35 21 -35 6 0 7 -5 4 -10 -3 -6 -1 -10 4 -10 6 0 11 -7
11 -15 0 -13 111 -15 938 -15 l938 0 3 73 c5 97 3 246 -3 333 -4 59 1 92 30
205 38 146 62 236 71 259 8 21 11 36 38 208 2 13 5 53 6 88 1 35 5 64 8 64 4
0 17 -18 31 -40 14 -22 28 -40 32 -40 5 0 8 -7 8 -15 0 -8 5 -15 10 -15 6 0
10 -5 10 -11 0 -6 6 -16 13 -23 6 -8 19 -24 27 -36 8 -12 21 -28 28 -36 6 -7
12 -15 12 -18 0 -4 15 -21 33 -39 18 -17 42 -48 53 -67 10 -19 23 -38 27 -41
5 -3 8 -9 7 -13 -1 -4 7 -33 18 -64 11 -31 28 -86 37 -122 14 -57 50 -165 75
-225 11 -27 20 -55 18 -58 -1 -1 5 -13 12 -27 8 -14 14 -28 15 -32 0 -3 3 -10
8 -14 4 -4 7 -13 7 -20 0 -7 5 -25 12 -41 6 -15 12 -34 14 -41 1 -8 6 -21 10
-30 4 -9 8 -20 9 -24 2 -5 4 -10 5 -13 1 -3 3 -8 5 -12 1 -5 4 -15 8 -23 3 -8
11 -32 17 -52 l12 -38 190 0 190 0 -3 33 c-2 17 -5 37 -8 42 -3 6 -6 21 -7 35
-1 14 -5 43 -8 65 -4 22 -9 54 -12 70 -2 17 -6 41 -9 55 -11 60 -15 77 -20
112 -2 21 -9 57 -14 80 -5 24 -12 61 -15 83 -4 22 -9 48 -12 57 -5 17 -10 41
-19 92 -3 15 -13 45 -21 65 -9 20 -17 41 -18 46 -2 9 -14 35 -55 125 -9 19
-26 49 -38 66 -13 17 -23 36 -23 42 0 6 -4 12 -8 14 -9 3 -100 164 -123 216
-8 17 -18 32 -22 32 -5 0 -5 5 -2 10 3 6 3 10 -2 10 -4 0 -26 37 -48 83 -22
45 -43 83 -47 85 -5 2 -8 11 -8 21 0 9 -5 22 -11 28 -8 8 -9 20 -1 41 17 48 7
125 -22 170 -14 23 -26 46 -26 51 0 5 -4 11 -8 13 -9 3 -132 249 -132 263 0
14 -74 120 -115 164 l-44 47 22 25 c13 13 32 39 42 57 11 17 23 32 27 32 4 0
8 5 8 11 0 6 16 30 35 53 19 24 35 48 35 54 0 6 3 12 8 14 16 7 60 87 87 158
26 68 29 87 29 205 1 124 -3 167 -24 245 -7 28 -15 96 -24 204 0 6 6 37 13 69
11 42 12 69 4 101 -9 40 -7 47 17 83 20 30 25 44 18 57 -7 12 -4 23 13 40 29
30 31 42 30 150 0 51 4 96 11 103 13 16 2 222 -12 241 -2 1 -3 5 -4 10 -1 4
-7 17 -14 30 -11 19 -10 37 2 100 34 175 35 188 12 357 -18 127 -128 350 -213
432 -13 12 -23 25 -23 29 0 3 -13 23 -30 44 -16 21 -30 43 -30 49 0 6 -4 11
-8 11 -5 0 -15 11 -22 25 -7 14 -19 25 -27 25 -7 0 -13 5 -13 10 0 6 -7 10
-15 10 -8 0 -15 4 -15 9 0 5 -12 15 -27 22 -16 8 -49 26 -74 42 -25 15 -61 29
-80 32 -19 3 -45 7 -59 9 -14 2 -25 5 -25 6 0 4 -85 21 -107 21 -9 0 -22 7
-29 15 -6 8 -17 14 -24 14 -7 0 -24 9 -39 21 -14 11 -26 17 -26 12 0 -4 -4 -2
-9 6 -14 22 -82 17 -133 -10 -13 -7 -25 -12 -28 -11 -3 1 -6 -2 -6 -8 -1 -5
-2 -13 -3 -17 0 -4 -14 6 -29 21 -25 23 -35 26 -68 21 -44 -7 -62 -8 -116 -4
-21 2 -38 6 -38 9 0 6 -25 10 -72 13 -16 1 -28 5 -28 10 0 4 -9 3 -19 -3 -12
-6 -21 -6 -23 0 -2 5 -8 6 -15 2z m-979 -1569 c-17 -17 -24 -16 -24 2 0 8 5
15 10 15 6 0 9 3 9 8 -4 23 4 33 10 12 4 -15 2 -30 -5 -37z m-4 -74 c0 -19 -4
-28 -11 -23 -8 4 -8 0 0 -15 8 -14 8 -21 1 -21 -5 0 -9 -5 -7 -11 1 -6 -3 -13
-9 -16 -8 -2 -12 9 -12 31 0 19 -3 39 -7 45 -3 6 -1 11 5 11 6 0 8 5 4 12 -4
6 -3 8 4 4 6 -3 13 -2 17 4 11 17 15 11 15 -21z m-13 -128 c-7 -8 -7 -12 -1
-9 6 4 10 -8 9 -33 -1 -21 2 -39 5 -39 3 0 6 -8 7 -18 1 -9 2 -22 3 -27 1 -6
2 -19 1 -30 -1 -17 -4 -15 -16 9 -9 16 -17 43 -20 60 -2 17 -5 31 -6 31 -8 0
-4 81 5 87 16 11 27 -14 13 -31z m2016 -1066 c-3 -9 -8 -14 -10 -11 -3 3 -2 9
2 15 9 16 15 13 8 -4z m-20 -40 c-3 -9 -8 -14 -10 -11 -3 3 -2 9 2 15 9 16 15
13 8 -4z m-35 -85 c-7 -10 -14 -18 -15 -16 -6 6 9 36 18 36 5 0 4 -9 -3 -20z
m-1410 -189 c12 -10 22 -21 22 -25 0 -12 -37 13 -44 29 -7 20 -4 19 22 -4z"/>
</g>
</svg>
