<?xml version="1.0" standalone="no"?>
<!DOCTYPE svg PUBLIC "-//W3C//DTD SVG 20010904//EN"
 "http://www.w3.org/TR/2001/REC-SVG-20010904/DTD/svg10.dtd">
<svg version="1.0" xmlns="http://www.w3.org/2000/svg"
 width="431.000000pt" height="431.000000pt" viewBox="0 0 431.000000 431.000000"
 preserveAspectRatio="xMidYMid meet">
<metadata>
Created by potrace 1.14, written by Peter Selinger 2001-2017
</metadata>
<g transform="translate(0.000000,431.000000) scale(0.100000,-0.100000)"
fill="#000000" stroke="none">
<path d="M2971 3583 c-68 -17 -111 -43 -155 -94 -31 -36 -37 -40 -68 -34 -20
4 -59 0 -91 -8 -34 -9 -70 -12 -89 -8 -83 18 -179 0 -226 -43 -16 -14 -25 -17
-30 -9 -4 6 -27 21 -51 34 -37 19 -59 22 -140 22 -86 0 -202 -20 -251 -43 -8
-4 -51 -24 -95 -44 -111 -52 -242 -137 -319 -208 -27 -25 -46 -22 -46 5 0 13
-7 46 -15 73 -25 84 -106 145 -196 146 -60 0 -104 -16 -142 -51 -28 -26 -29
-26 -43 -6 -54 78 -124 111 -211 103 -127 -12 -215 -145 -180 -270 7 -26 5
-28 -23 -28 -36 0 -96 -23 -124 -48 -27 -24 -56 -91 -56 -131 0 -52 37 -118
83 -149 l41 -27 305 -2 c361 -2 326 0 313 -16 -23 -27 -93 -260 -107 -357 -2
-14 -7 -37 -10 -52 -12 -64 -16 -86 -21 -138 -4 -30 -8 -62 -10 -70 -1 -8 -3
-45 -3 -81 l-1 -66 -61 -7 c-115 -12 -201 -71 -248 -171 -25 -53 -33 -139 -18
-206 7 -35 5 -38 -27 -57 -42 -25 -76 -87 -76 -139 0 -56 38 -123 88 -158 43
-29 47 -30 183 -33 l138 -4 1 -266 c0 -147 2 -294 4 -327 12 -180 51 -355 101
-455 23 -46 115 -154 115 -136 0 5 6 4 12 -1 19 -14 97 -16 112 -3 8 6 12 19
9 29 -6 23 2 26 114 41 50 7 97 16 103 20 14 9 17 24 20 140 1 47 4 76 7 65
12 -58 58 -172 75 -187 16 -14 34 -16 111 -12 100 6 117 13 118 53 1 25 1 25
12 -6 16 -43 20 -45 74 -48 26 -1 117 -6 201 -10 85 -4 171 -8 191 -10 44 -3
60 4 65 31 3 10 11 35 19 54 8 19 16 38 16 42 6 39 15 69 21 73 6 4 5 -40 -4
-132 -5 -54 11 -71 70 -77 27 -3 78 -8 114 -11 36 -4 79 -9 95 -11 17 -2 57
-4 89 -5 51 -1 61 1 77 22 15 19 19 21 19 7 0 -21 26 -36 76 -44 20 -3 48 -10
61 -15 13 -5 23 -6 23 -4 0 3 10 -1 23 -9 24 -17 75 -13 117 9 28 15 70 60 70
75 0 6 3 10 8 10 7 0 36 58 67 134 18 46 41 135 49 191 4 22 8 54 11 70 29
186 32 286 22 587 l-6 158 105 0 c67 0 117 5 138 14 38 16 80 67 90 109 17 71
-42 155 -124 177 -27 7 -40 16 -40 28 0 75 -61 152 -134 171 -25 6 -46 15 -47
19 -2 15 -7 133 -13 297 -10 271 -15 331 -37 439 -23 114 -57 220 -94 298 -14
28 -25 53 -25 55 0 2 19 3 43 3 167 1 275 199 181 333 -33 47 -85 86 -126 94
-23 5 -30 14 -43 62 -53 182 -205 278 -374 234z"/>
</g>
</svg>
