<?xml version="1.0" standalone="no"?>
<!DOCTYPE svg PUBLIC "-//W3C//DTD SVG 20010904//EN"
 "http://www.w3.org/TR/2001/REC-SVG-20010904/DTD/svg10.dtd">
<svg version="1.0" xmlns="http://www.w3.org/2000/svg"
 width="500.000000pt" height="500.000000pt" viewBox="0 0 500.000000 500.000000"
 preserveAspectRatio="xMidYMid meet">
<metadata>
Created by potrace 1.14, written by Peter Selinger 2001-2017
</metadata>
<g transform="translate(0.000000,500.000000) scale(0.100000,-0.100000)"
fill="#000000" stroke="none">
<path d="M2027 4858 c-3 -7 -35 -28 -72 -47 -37 -19 -80 -47 -96 -64 -30 -31
-33 -45 -29 -134 1 -29 -2 -53 -7 -53 -5 0 -22 13 -39 29 -16 15 -47 34 -69
41 -22 7 -50 20 -63 28 -41 26 -43 1 -7 -71 18 -38 41 -77 51 -88 9 -10 15
-20 13 -22 -2 -2 -40 -21 -84 -42 -111 -54 -239 -141 -307 -210 -32 -31 -58
-61 -58 -65 0 -5 -6 -15 -13 -22 -7 -7 -30 -39 -51 -71 -20 -32 -54 -75 -75
-95 -54 -54 -88 -103 -97 -137 -4 -16 -12 -39 -18 -50 -15 -28 -17 -46 -17
-168 -1 -59 4 -113 9 -120 15 -19 23 -65 12 -72 -6 -3 -38 -9 -73 -11 -55 -5
-97 -24 -97 -44 0 -12 114 -43 153 -41 35 1 49 -14 31 -32 -3 -3 -8 -30 -10
-59 -2 -29 -7 -69 -10 -88 -33 -206 -36 -646 -4 -685 5 -5 8 -14 9 -20 0 -8
10 -60 16 -85 6 -27 31 -80 36 -80 4 0 10 -14 14 -30 4 -17 11 -30 16 -30 5 0
9 -7 9 -15 0 -8 4 -15 10 -15 5 0 16 -13 25 -30 15 -29 35 -40 35 -20 0 6 -13
29 -30 52 -16 22 -30 46 -30 53 0 6 -5 16 -11 22 -14 14 -58 118 -65 153 -35
169 -38 443 -8 685 3 22 7 61 8 86 3 43 24 99 27 72 1 -7 2 -19 3 -25 1 -7 -3
-16 -9 -20 -6 -5 -5 -8 3 -8 9 0 12 -17 11 -57 -1 -32 1 -74 5 -93 5 -31 8
-59 21 -185 2 -16 6 -61 9 -99 4 -37 8 -71 10 -75 2 -3 7 -40 10 -81 3 -41 11
-109 16 -150 11 -78 12 -86 23 -135 5 -26 11 -72 23 -180 2 -16 10 -55 18 -85
8 -30 17 -84 21 -120 4 -36 15 -97 25 -135 11 -39 22 -86 25 -105 3 -18 9 -40
14 -47 11 -20 137 -65 191 -68 25 -2 47 -3 49 -4 14 -3 -92 -88 -158 -127 -64
-39 -52 -86 15 -58 55 24 132 34 138 18 3 -7 -15 -32 -40 -56 -25 -24 -52 -54
-59 -68 -8 -14 -37 -50 -65 -80 -28 -30 -68 -74 -88 -98 -20 -24 -62 -62 -92
-85 -80 -61 -106 -91 -168 -186 -31 -47 -60 -87 -64 -89 -4 -2 -8 -8 -8 -14 0
-10 -70 -100 -139 -178 -17 -19 -37 -47 -43 -62 -7 -15 -25 -33 -40 -39 -14
-6 -34 -19 -44 -30 -9 -10 -20 -19 -24 -19 -16 0 -180 -156 -180 -171 0 -3 -8
-15 -18 -27 -44 -52 -52 -63 -52 -67 0 -3 -15 -27 -33 -53 -18 -26 -40 -59
-50 -74 l-17 -28 560 0 c547 0 560 0 551 19 -12 22 0 36 43 47 31 8 46 -6 46
-43 l0 -23 308 0 c181 0 301 4 293 9 -11 7 -12 19 -5 52 8 38 12 43 39 45 37
2 95 -22 95 -39 0 -6 -7 -21 -15 -31 -22 -29 -19 -37 14 -34 19 1 27 7 24 15
-3 7 0 13 6 13 6 0 11 12 11 26 0 25 1 26 63 21 87 -6 167 -34 167 -58 0 -11
7 -19 16 -19 11 0 15 6 12 17 -7 27 49 29 57 3 6 -20 24 -20 1211 -20 l1204 0
0 129 c0 102 -3 131 -15 141 -8 7 -15 19 -15 27 0 7 -7 16 -15 20 -15 5 -61
83 -50 83 3 0 1 8 -4 19 -13 23 -20 71 -27 198 l-7 102 -52 53 c-62 62 -71 70
-156 131 -68 48 -65 43 -138 227 -10 25 -34 79 -54 120 -20 41 -39 92 -42 113
-4 20 -11 40 -16 43 -5 2 -17 24 -27 47 -11 25 -69 93 -140 166 -116 119 -120
125 -120 167 0 24 -4 49 -8 56 -5 7 -9 18 -10 23 -15 92 -63 189 -127 258 -58
62 -106 93 -159 102 -18 3 -51 11 -72 16 -51 14 -215 14 -292 0 -103 -18 -164
-22 -164 -11 0 5 4 10 8 10 5 0 9 6 10 13 0 6 9 48 18 92 18 89 26 379 12 455
-5 25 -11 67 -13 93 -3 27 -10 68 -16 90 -5 23 -11 47 -12 52 -1 6 -6 16 -10
23 -5 6 -6 12 -3 12 3 0 1 11 -4 24 -5 13 -12 43 -15 66 -3 23 -10 50 -15 59
-8 16 -22 54 -21 58 1 2 -11 33 -25 70 -14 38 -28 79 -30 93 -3 14 -11 34 -18
45 -7 11 -23 47 -35 80 -12 33 -26 64 -31 70 -4 5 -11 25 -15 44 -4 19 -14 50
-22 70 -9 20 -15 36 -13 36 1 0 -13 32 -30 70 -18 39 -47 111 -65 161 -18 50
-44 102 -57 116 -12 14 -34 39 -48 58 -14 18 -38 45 -55 61 -88 82 -123 111
-147 125 -16 8 -28 19 -28 24 0 6 -5 10 -11 10 -5 0 -38 13 -72 29 -167 77
-254 90 -545 81 -51 -1 -96 0 -99 3 -8 9 47 78 57 72 5 -3 14 1 22 8 7 7 26
20 41 30 15 10 25 22 22 27 -4 6 -2 10 3 10 11 0 30 67 35 121 6 56 -21 105
-36 67z m1127 -1443 c10 -20 19 -46 22 -58 2 -12 17 -65 33 -117 52 -166 70
-234 76 -279 3 -23 8 -47 11 -52 3 -5 8 -33 10 -62 23 -230 21 -409 -6 -492
-5 -16 -11 -43 -14 -60 -2 -16 -9 -41 -14 -55 -9 -22 -11 -18 -13 30 -3 100
-17 290 -23 330 -3 14 -7 81 -11 150 -8 173 -24 307 -43 360 -6 18 -9 41 -13
95 -1 22 -7 49 -12 60 -6 11 -12 29 -13 40 -2 11 -8 47 -13 80 -6 33 -11 64
-11 68 0 16 18 -4 34 -38z m-1280 -3362 c1 -24 -2 -29 -19 -29 -12 0 -22 6
-22 12 0 7 5 12 11 11 9 -2 11 3 15 35 2 21 13 0 15 -29z"/>
</g>
</svg>
